<svg xmlns="http://www.w3.org/2000/svg" width="420" height="600" viewBox="0 0 420 600">
  <defs>
    <linearGradient id="shirt" x1="0" x2="0" y1="0" y2="1">
      <stop offset="0" stop-color="#0ea5e9" stop-opacity="0.95"/>
      <stop offset="1" stop-color="#0369a1" stop-opacity="0.95"/>
    </linearGradient>
    <filter id="soft" x="-20%" y="-20%" width="140%" height="140%">
      <feGaussianBlur stdDeviation="1.6"/>
    </filter>
  </defs>

  <!-- simple “leaning in” character placeholder -->
  <g transform="translate(30,40) rotate(-6)">
    <ellipse cx="160" cy="120" rx="80" ry="86" fill="#f1c27d"/>
    <path d="M90 120c18-70 135-90 190-10c-8 25-28 45-55 52c-52 13-106 0-135-42z" fill="#1f2937"/>
    <circle cx="135" cy="135" r="7" fill="#111"/>
    <circle cx="195" cy="135" r="7" fill="#111"/>
    <path d="M150 165c18 16 44 14 62-2" stroke="#8b5e34" stroke-width="8" fill="none" stroke-linecap="round"/>

    <path d="M70 260c60-72 220-72 280 0v180c-40 26-84 40-140 40S110 466 70 440Z" fill="url(#shirt)"/>
    <path d="M70 305c-30 28-52 68-58 102c-6 34 6 62 30 78c24 15 58 10 90-12"
          fill="none" stroke="#0b4a6f" stroke-width="26" stroke-linecap="round"/>
    <circle cx="50" cy="468" r="26" fill="#f1c27d"/>

    <path d="M250 260c40 30 72 84 86 128" fill="none" stroke="#0b4a6f" stroke-width="26" stroke-linecap="round"/>
    <circle cx="336" cy="390" r="22" fill="#f1c27d"/>

    <path d="M115 250c35-30 115-30 150 0" fill="none" stroke="#083344" stroke-opacity="0.35" stroke-width="10" filter="url(#soft)"/>
  </g>
</svg>

